<mxfile host="app.diagrams.net" modified="2023-11-16T21:59:12.650Z" agent="Mozilla/5.0 (Macintosh; Intel Mac OS X 10_15_7) AppleWebKit/537.36 (KHTML, like Gecko) Chrome/119.0.0.0 Safari/537.36" etag="1W0LgJ9W9kSufA90jDe4" version="22.1.2" type="device">
  <diagram name="Страница — 1" id="ao4LVwl4Aft9t7SkGcJY">
    <mxGraphModel dx="1026" dy="572" grid="1" gridSize="10" guides="1" tooltips="1" connect="1" arrows="1" fold="1" page="1" pageScale="1" pageWidth="827" pageHeight="1169" math="0" shadow="0">
      <root>
        <mxCell id="0" />
        <mxCell id="1" parent="0" />
        <mxCell id="Qh3Sst1I_nVJsPaQgQWO-4" value="" style="group;fillColor=#0050ef;strokeColor=#001DBC;fontColor=#ffffff;" parent="1" vertex="1" connectable="0">
          <mxGeometry x="210" y="40" width="460" height="40" as="geometry" />
        </mxCell>
        <mxCell id="Qh3Sst1I_nVJsPaQgQWO-1" value="" style="rounded=0;whiteSpace=wrap;html=1;fillColor=#647687;fontColor=#ffffff;strokeColor=#314354;movable=1;resizable=1;rotatable=1;deletable=1;editable=1;locked=0;connectable=1;" parent="Qh3Sst1I_nVJsPaQgQWO-4" vertex="1">
          <mxGeometry width="459.99999999999994" height="40" as="geometry" />
        </mxCell>
        <mxCell id="Qh3Sst1I_nVJsPaQgQWO-2" value="Користувач" style="text;html=1;strokeColor=none;fillColor=none;align=center;verticalAlign=middle;whiteSpace=wrap;rounded=0;movable=1;resizable=1;rotatable=1;deletable=1;editable=1;locked=0;connectable=1;" parent="Qh3Sst1I_nVJsPaQgQWO-4" vertex="1">
          <mxGeometry x="71.55527927927928" y="5" width="37.2972972972973" height="30" as="geometry" />
        </mxCell>
        <mxCell id="Qh3Sst1I_nVJsPaQgQWO-3" value="Сайт" style="text;html=1;strokeColor=none;fillColor=none;align=center;verticalAlign=middle;whiteSpace=wrap;rounded=0;movable=1;resizable=1;rotatable=1;deletable=1;editable=1;locked=0;connectable=1;" parent="Qh3Sst1I_nVJsPaQgQWO-4" vertex="1">
          <mxGeometry x="341.89189189189193" y="5" width="37.2972972972973" height="30" as="geometry" />
        </mxCell>
        <mxCell id="Qh3Sst1I_nVJsPaQgQWO-6" value="" style="endArrow=none;html=1;rounded=0;entryX=0.581;entryY=0.05;entryDx=0;entryDy=0;entryPerimeter=0;" parent="1" edge="1">
          <mxGeometry width="50" height="50" relative="1" as="geometry">
            <mxPoint x="440.06" y="969" as="sourcePoint" />
            <mxPoint x="440.00000000000006" y="40" as="targetPoint" />
          </mxGeometry>
        </mxCell>
        <mxCell id="6E67Ulj1xf-0k0NIYnZT-3" value="" style="edgeStyle=orthogonalEdgeStyle;rounded=0;orthogonalLoop=1;jettySize=auto;html=1;" edge="1" parent="1" source="6E67Ulj1xf-0k0NIYnZT-1" target="6E67Ulj1xf-0k0NIYnZT-2">
          <mxGeometry relative="1" as="geometry" />
        </mxCell>
        <mxCell id="6E67Ulj1xf-0k0NIYnZT-1" value="" style="ellipse;whiteSpace=wrap;html=1;aspect=fixed;fillColor=#000000;" vertex="1" parent="1">
          <mxGeometry x="297.5" y="90" width="30" height="30" as="geometry" />
        </mxCell>
        <mxCell id="6E67Ulj1xf-0k0NIYnZT-24" style="edgeStyle=orthogonalEdgeStyle;rounded=0;orthogonalLoop=1;jettySize=auto;html=1;" edge="1" parent="1" source="6E67Ulj1xf-0k0NIYnZT-2" target="6E67Ulj1xf-0k0NIYnZT-9">
          <mxGeometry relative="1" as="geometry" />
        </mxCell>
        <mxCell id="6E67Ulj1xf-0k0NIYnZT-2" value="Головна сторінка" style="rounded=0;whiteSpace=wrap;html=1;" vertex="1" parent="1">
          <mxGeometry x="280" y="150" width="65" height="40" as="geometry" />
        </mxCell>
        <mxCell id="6E67Ulj1xf-0k0NIYnZT-25" style="edgeStyle=orthogonalEdgeStyle;rounded=0;orthogonalLoop=1;jettySize=auto;html=1;entryX=0;entryY=0.5;entryDx=0;entryDy=0;" edge="1" parent="1" source="6E67Ulj1xf-0k0NIYnZT-9" target="6E67Ulj1xf-0k0NIYnZT-19">
          <mxGeometry relative="1" as="geometry" />
        </mxCell>
        <mxCell id="6E67Ulj1xf-0k0NIYnZT-9" value="Вибір Театральної Вистави" style="rounded=0;whiteSpace=wrap;html=1;" vertex="1" parent="1">
          <mxGeometry x="275" y="210" width="75" height="50" as="geometry" />
        </mxCell>
        <mxCell id="6E67Ulj1xf-0k0NIYnZT-32" style="edgeStyle=orthogonalEdgeStyle;rounded=0;orthogonalLoop=1;jettySize=auto;html=1;" edge="1" parent="1" source="6E67Ulj1xf-0k0NIYnZT-10" target="6E67Ulj1xf-0k0NIYnZT-12">
          <mxGeometry relative="1" as="geometry" />
        </mxCell>
        <mxCell id="6E67Ulj1xf-0k0NIYnZT-10" value="Деталі Вистави" style="rounded=0;whiteSpace=wrap;html=1;" vertex="1" parent="1">
          <mxGeometry x="275" y="280" width="75" height="50" as="geometry" />
        </mxCell>
        <mxCell id="6E67Ulj1xf-0k0NIYnZT-33" style="edgeStyle=orthogonalEdgeStyle;rounded=0;orthogonalLoop=1;jettySize=auto;html=1;entryX=0;entryY=0.5;entryDx=0;entryDy=0;" edge="1" parent="1" source="6E67Ulj1xf-0k0NIYnZT-12" target="6E67Ulj1xf-0k0NIYnZT-20">
          <mxGeometry relative="1" as="geometry" />
        </mxCell>
        <mxCell id="6E67Ulj1xf-0k0NIYnZT-12" value="Вибір Білетів та Місць" style="rounded=0;whiteSpace=wrap;html=1;" vertex="1" parent="1">
          <mxGeometry x="275" y="350" width="75" height="50" as="geometry" />
        </mxCell>
        <mxCell id="6E67Ulj1xf-0k0NIYnZT-39" style="edgeStyle=orthogonalEdgeStyle;rounded=0;orthogonalLoop=1;jettySize=auto;html=1;" edge="1" parent="1" source="6E67Ulj1xf-0k0NIYnZT-13" target="6E67Ulj1xf-0k0NIYnZT-15">
          <mxGeometry relative="1" as="geometry" />
        </mxCell>
        <mxCell id="6E67Ulj1xf-0k0NIYnZT-13" value="Додавання у Кошик" style="rounded=0;whiteSpace=wrap;html=1;" vertex="1" parent="1">
          <mxGeometry x="275" y="432.5" width="75" height="50" as="geometry" />
        </mxCell>
        <mxCell id="6E67Ulj1xf-0k0NIYnZT-41" style="edgeStyle=orthogonalEdgeStyle;rounded=0;orthogonalLoop=1;jettySize=auto;html=1;" edge="1" parent="1" source="6E67Ulj1xf-0k0NIYnZT-15" target="6E67Ulj1xf-0k0NIYnZT-16">
          <mxGeometry relative="1" as="geometry" />
        </mxCell>
        <mxCell id="6E67Ulj1xf-0k0NIYnZT-15" value="Оформлення Замовлення" style="rounded=0;whiteSpace=wrap;html=1;" vertex="1" parent="1">
          <mxGeometry x="275" y="510" width="75" height="50" as="geometry" />
        </mxCell>
        <mxCell id="6E67Ulj1xf-0k0NIYnZT-42" style="edgeStyle=orthogonalEdgeStyle;rounded=0;orthogonalLoop=1;jettySize=auto;html=1;" edge="1" parent="1" source="6E67Ulj1xf-0k0NIYnZT-16" target="6E67Ulj1xf-0k0NIYnZT-21">
          <mxGeometry relative="1" as="geometry" />
        </mxCell>
        <mxCell id="6E67Ulj1xf-0k0NIYnZT-16" value="Введення Даних" style="rounded=0;whiteSpace=wrap;html=1;" vertex="1" parent="1">
          <mxGeometry x="275" y="590" width="75" height="50" as="geometry" />
        </mxCell>
        <mxCell id="6E67Ulj1xf-0k0NIYnZT-48" style="edgeStyle=orthogonalEdgeStyle;rounded=0;orthogonalLoop=1;jettySize=auto;html=1;exitX=0.5;exitY=1;exitDx=0;exitDy=0;entryX=0;entryY=0.5;entryDx=0;entryDy=0;" edge="1" parent="1" source="6E67Ulj1xf-0k0NIYnZT-17" target="6E67Ulj1xf-0k0NIYnZT-22">
          <mxGeometry relative="1" as="geometry">
            <mxPoint x="313" y="700" as="sourcePoint" />
            <Array as="points">
              <mxPoint x="313" y="720" />
            </Array>
          </mxGeometry>
        </mxCell>
        <mxCell id="6E67Ulj1xf-0k0NIYnZT-17" value="Оплата" style="rounded=0;whiteSpace=wrap;html=1;" vertex="1" parent="1">
          <mxGeometry x="275" y="650" width="75" height="50" as="geometry" />
        </mxCell>
        <mxCell id="6E67Ulj1xf-0k0NIYnZT-57" style="edgeStyle=orthogonalEdgeStyle;rounded=0;orthogonalLoop=1;jettySize=auto;html=1;" edge="1" parent="1" source="6E67Ulj1xf-0k0NIYnZT-18" target="6E67Ulj1xf-0k0NIYnZT-23">
          <mxGeometry relative="1" as="geometry">
            <Array as="points">
              <mxPoint x="328" y="840" />
              <mxPoint x="548" y="840" />
            </Array>
          </mxGeometry>
        </mxCell>
        <mxCell id="6E67Ulj1xf-0k0NIYnZT-18" value="Підтвердження Успішного Замовлення" style="rounded=0;whiteSpace=wrap;html=1;" vertex="1" parent="1">
          <mxGeometry x="275" y="775" width="105" height="50" as="geometry" />
        </mxCell>
        <mxCell id="6E67Ulj1xf-0k0NIYnZT-31" style="edgeStyle=orthogonalEdgeStyle;rounded=0;orthogonalLoop=1;jettySize=auto;html=1;" edge="1" parent="1" source="6E67Ulj1xf-0k0NIYnZT-19" target="6E67Ulj1xf-0k0NIYnZT-10">
          <mxGeometry relative="1" as="geometry">
            <Array as="points">
              <mxPoint x="538" y="305" />
            </Array>
          </mxGeometry>
        </mxCell>
        <mxCell id="6E67Ulj1xf-0k0NIYnZT-19" value="Завантаження Даних Про Вистави" style="rounded=0;whiteSpace=wrap;html=1;" vertex="1" parent="1">
          <mxGeometry x="492.5" y="210" width="90" height="50" as="geometry" />
        </mxCell>
        <mxCell id="6E67Ulj1xf-0k0NIYnZT-35" value="" style="edgeStyle=orthogonalEdgeStyle;rounded=0;orthogonalLoop=1;jettySize=auto;html=1;" edge="1" parent="1" source="6E67Ulj1xf-0k0NIYnZT-20" target="6E67Ulj1xf-0k0NIYnZT-34">
          <mxGeometry relative="1" as="geometry" />
        </mxCell>
        <mxCell id="6E67Ulj1xf-0k0NIYnZT-20" value="Оновлення Доступності Білетів та Схеми Залу" style="rounded=0;whiteSpace=wrap;html=1;" vertex="1" parent="1">
          <mxGeometry x="492.5" y="345" width="90" height="60" as="geometry" />
        </mxCell>
        <mxCell id="6E67Ulj1xf-0k0NIYnZT-47" style="edgeStyle=orthogonalEdgeStyle;rounded=0;orthogonalLoop=1;jettySize=auto;html=1;entryX=1;entryY=0.5;entryDx=0;entryDy=0;" edge="1" parent="1" source="6E67Ulj1xf-0k0NIYnZT-21" target="6E67Ulj1xf-0k0NIYnZT-17">
          <mxGeometry relative="1" as="geometry">
            <Array as="points">
              <mxPoint x="548" y="675" />
            </Array>
          </mxGeometry>
        </mxCell>
        <mxCell id="6E67Ulj1xf-0k0NIYnZT-21" value="Збереження Замовлення" style="rounded=0;whiteSpace=wrap;html=1;" vertex="1" parent="1">
          <mxGeometry x="502.5" y="585" width="90" height="60" as="geometry" />
        </mxCell>
        <mxCell id="6E67Ulj1xf-0k0NIYnZT-50" value="" style="edgeStyle=orthogonalEdgeStyle;rounded=0;orthogonalLoop=1;jettySize=auto;html=1;" edge="1" parent="1" source="6E67Ulj1xf-0k0NIYnZT-22" target="6E67Ulj1xf-0k0NIYnZT-49">
          <mxGeometry relative="1" as="geometry" />
        </mxCell>
        <mxCell id="6E67Ulj1xf-0k0NIYnZT-22" value="Обробка та Підтвердження Платежу" style="rounded=0;whiteSpace=wrap;html=1;" vertex="1" parent="1">
          <mxGeometry x="502.5" y="690" width="90" height="60" as="geometry" />
        </mxCell>
        <mxCell id="6E67Ulj1xf-0k0NIYnZT-60" style="edgeStyle=orthogonalEdgeStyle;rounded=0;orthogonalLoop=1;jettySize=auto;html=1;" edge="1" parent="1" source="6E67Ulj1xf-0k0NIYnZT-23" target="6E67Ulj1xf-0k0NIYnZT-59">
          <mxGeometry relative="1" as="geometry" />
        </mxCell>
        <mxCell id="6E67Ulj1xf-0k0NIYnZT-23" value="Відправлення Підтвердження та Білетів" style="rounded=0;whiteSpace=wrap;html=1;" vertex="1" parent="1">
          <mxGeometry x="502.5" y="855" width="90" height="60" as="geometry" />
        </mxCell>
        <mxCell id="6E67Ulj1xf-0k0NIYnZT-29" value="" style="ellipse;whiteSpace=wrap;html=1;aspect=fixed;fillColor=#000000;" vertex="1" parent="1">
          <mxGeometry x="312.5" y="930" width="30" height="30" as="geometry" />
        </mxCell>
        <mxCell id="6E67Ulj1xf-0k0NIYnZT-36" value="Ні" style="edgeStyle=orthogonalEdgeStyle;rounded=0;orthogonalLoop=1;jettySize=auto;html=1;" edge="1" parent="1" source="6E67Ulj1xf-0k0NIYnZT-34" target="6E67Ulj1xf-0k0NIYnZT-12">
          <mxGeometry x="-0.9519" relative="1" as="geometry">
            <Array as="points">
              <mxPoint x="610" y="458" />
              <mxPoint x="610" y="336" />
              <mxPoint x="313" y="336" />
            </Array>
            <mxPoint x="1" as="offset" />
          </mxGeometry>
        </mxCell>
        <mxCell id="6E67Ulj1xf-0k0NIYnZT-37" value="Так" style="edgeStyle=orthogonalEdgeStyle;rounded=0;orthogonalLoop=1;jettySize=auto;html=1;" edge="1" parent="1" source="6E67Ulj1xf-0k0NIYnZT-34" target="6E67Ulj1xf-0k0NIYnZT-13">
          <mxGeometry x="-0.8514" relative="1" as="geometry">
            <mxPoint as="offset" />
          </mxGeometry>
        </mxCell>
        <mxCell id="6E67Ulj1xf-0k0NIYnZT-34" value="Місце&lt;br&gt;вільне" style="rhombus;whiteSpace=wrap;html=1;rounded=0;" vertex="1" parent="1">
          <mxGeometry x="490" y="430" width="95" height="55" as="geometry" />
        </mxCell>
        <mxCell id="6E67Ulj1xf-0k0NIYnZT-52" value="Ні" style="edgeStyle=orthogonalEdgeStyle;rounded=0;orthogonalLoop=1;jettySize=auto;html=1;entryX=1;entryY=0.5;entryDx=0;entryDy=0;" edge="1" parent="1" source="6E67Ulj1xf-0k0NIYnZT-49" target="6E67Ulj1xf-0k0NIYnZT-51">
          <mxGeometry x="-0.9228" relative="1" as="geometry">
            <Array as="points">
              <mxPoint x="630" y="800" />
              <mxPoint x="630" y="535" />
            </Array>
            <mxPoint as="offset" />
          </mxGeometry>
        </mxCell>
        <mxCell id="6E67Ulj1xf-0k0NIYnZT-55" value="Так" style="edgeStyle=orthogonalEdgeStyle;rounded=0;orthogonalLoop=1;jettySize=auto;html=1;" edge="1" parent="1" source="6E67Ulj1xf-0k0NIYnZT-49" target="6E67Ulj1xf-0k0NIYnZT-18">
          <mxGeometry x="-0.7087" relative="1" as="geometry">
            <mxPoint x="400" y="800" as="targetPoint" />
            <Array as="points" />
            <mxPoint as="offset" />
          </mxGeometry>
        </mxCell>
        <mxCell id="6E67Ulj1xf-0k0NIYnZT-49" value="Оплата успішна" style="rhombus;whiteSpace=wrap;html=1;rounded=0;" vertex="1" parent="1">
          <mxGeometry x="508.75" y="770" width="77.5" height="60" as="geometry" />
        </mxCell>
        <mxCell id="6E67Ulj1xf-0k0NIYnZT-54" style="edgeStyle=orthogonalEdgeStyle;rounded=0;orthogonalLoop=1;jettySize=auto;html=1;" edge="1" parent="1" source="6E67Ulj1xf-0k0NIYnZT-51" target="6E67Ulj1xf-0k0NIYnZT-17">
          <mxGeometry relative="1" as="geometry">
            <Array as="points">
              <mxPoint x="410" y="535" />
              <mxPoint x="410" y="675" />
            </Array>
          </mxGeometry>
        </mxCell>
        <mxCell id="6E67Ulj1xf-0k0NIYnZT-51" value="Повідомлення про помилку" style="whiteSpace=wrap;html=1;rounded=0;" vertex="1" parent="1">
          <mxGeometry x="502.5" y="510" width="90.5" height="50" as="geometry" />
        </mxCell>
        <mxCell id="6E67Ulj1xf-0k0NIYnZT-61" style="edgeStyle=orthogonalEdgeStyle;rounded=0;orthogonalLoop=1;jettySize=auto;html=1;" edge="1" parent="1" source="6E67Ulj1xf-0k0NIYnZT-59" target="6E67Ulj1xf-0k0NIYnZT-29">
          <mxGeometry relative="1" as="geometry" />
        </mxCell>
        <mxCell id="6E67Ulj1xf-0k0NIYnZT-59" value="Головна сторінка" style="rounded=0;whiteSpace=wrap;html=1;" vertex="1" parent="1">
          <mxGeometry x="295" y="865" width="65" height="40" as="geometry" />
        </mxCell>
      </root>
    </mxGraphModel>
  </diagram>
</mxfile>
